# xmcd
#
# Track frame offsets:
#	150
#	19704
#	34643
#	52514
#	70821
#	91617
#	110830
#	126910
#	143789
#	164014
#	183132
#	203004
#	217133
#	237142
#	255944
#	275458
#	290390
#	302402
#	320181
#	335502
#
# Disc length: 4720 seconds
#
# Revision: 0
# Processed by: cddbd v1.5.2PL0 Copyright (c) Steve Scherf et al.
# Submitted via: EasyCDDAExtractor 2010.6.0.0
#
DISCID=1a126e14
DTITLE=Various Artist - Testament Van De Eighties
DYEAR=2011
DGENRE=Pop
TTITLE0=Viola Wills - If You Could Read My Mind
TTITLE1=Tom Browne - Funkin' For Jamaica
TTITLE2=L.T.D. - Shine On
TTITLE3=Yarbrough and Peoples - Don't Stop The Music
TTITLE4=Ultravox - Vienna
TTITLE5=Christopher Cross - Sailing
TTITLE6=Max Werner - Rain In May
TTITLE7=Kim Carnes - Bette Davis Eyes
TTITLE8=Grace Jones - I've Seen That Face Before (Libertango)
TTITLE9=Michael Jackson - One Day In Your Life
TTITLE10=Tom Tom Club - Wordy Rappinghood
TTITLE11=Electric Light Orchestra - Hold On Tight
TTITLE12=Lionel Richie and Diana Ross - Endless Love
TTITLE13=André Hazes - Een Beetje Verliefd
TTITLE14=The Police - Every Little Thing She Does Is Magic
TTITLE15=Rick James - Super Freak
TTITLE16=Soft Cell - Tainted Love
TTITLE17=Kim Wilde - Cambodia
TTITLE18=Drukwerk - Je Loog Tegen Mij
TTITLE19=Ph. D. - I Won't Let You Down
EXTD=
EXTT0=
EXTT1=
EXTT2=
EXTT3=
EXTT4=
EXTT5=
EXTT6=
EXTT7=
EXTT8=
EXTT9=
EXTT10=
EXTT11=
EXTT12=
EXTT13=
EXTT14=
EXTT15=
EXTT16=
EXTT17=
EXTT18=
EXTT19=
PLAYORDER=
